<?xml version="1.0" encoding="UTF-8" standalone="no"?>
<svg
   xmlns:svg="http://www.w3.org/2000/svg"
   xmlns="http://www.w3.org/2000/svg"
   width="300"
   height="300"
   version="1.1">
  <path
     style="fill:#ff6600"
     d="m 31.077762,217.4979 c -6.221153,-1.69085 -11.447635,-3.21073 -11.614405,-3.3775 -0.166769,-0.16677 6.003211,-15.05888 13.711069,-33.09358 C 40.882283,162.99213 47.3411,147.71416 47.527353,147.07578 47.713607,146.4374 41.57257,128.30206 33.880604,106.77503 26.188638,85.247992 20.006218,67.523957 20.141892,67.388283 c 0.135674,-0.135674 5.170191,0.06493 11.187816,0.44578 7.275678,0.460475 11.224187,1.002819 11.786023,1.61886 0.464687,0.509519 6.970812,12.176399 14.458055,25.926399 l 13.613169,24.999998 -1.099605,27.05699 -1.099604,27.05699 -12.22797,23.10816 c -8.038212,15.19045 -12.595082,23.08462 -13.299399,23.03944 -0.589286,-0.0378 -6.161463,-1.45214 -12.382615,-3.143 l 0,0 z"
     id="path3047" />
  <path
     style="fill:#ff6600"
     d="m 142.18845,82.879322 -26.46224,-42.142858 17.61708,0.04122 17.61709,0.04122 30.07682,40.851641 c 16.54225,22.468395 29.97016,40.977305 29.8398,41.130885 -0.21767,0.25645 -33.69581,2.10131 -39.64289,2.18458 l -2.58342,0.0362 -26.46224,-42.142852 z"
     id="path3049" />
  <path
     style="fill:#ff6600"
     d="m 139.53181,267.49527 c -12.17858,-0.50345 -24.32366,-0.94443 -26.98908,-0.97995 l -4.84622,-0.0646 31.16219,-33.92857 c 25.82906,-28.12198 31.48708,-33.93483 33.06051,-33.96513 1.04407,-0.0201 13.63045,-0.77532 27.96974,-1.67825 14.33928,-0.90292 26.16486,-1.56982 26.27906,-1.48199 0.1142,0.0878 -13.48512,16.51268 -30.22071,36.49967 -25.74138,30.74242 -30.72443,36.3534 -32.3505,36.42708 -1.05717,0.0479 -11.88642,-0.32482 -24.06499,-0.82829 z"
     id="path3051" />
  <path
     style="fill:#28170b"
     d="m 172.38895,180.18297 c -45.17857,-2.55868 -82.256192,-4.746 -82.39471,-4.8607 -0.368261,-0.30495 1.709488,-44.49582 2.110963,-44.8973 0.186825,-0.18682 39.604877,2.99842 87.595677,7.07831 l 87.25599,7.41799 10.75176,9.06842 c 5.91346,4.98764 10.75175,9.27329 10.75175,9.52368 0,0.25038 -4.74497,5.1923 -10.54437,10.98203 l -10.54435,10.52678 -6.41993,-0.0935 c -3.53096,-0.0514 -43.38421,-2.18699 -88.56278,-4.74568 z"
     id="path3053" />
</svg>
